<svg width="20" height="20" viewBox="0 0 20 20" fill="none" xmlns="http://www.w3.org/2000/svg">
<path fill-rule="evenodd" clip-rule="evenodd" d="M0 2C0 0.89543 0.89543 0 2 0H7C8.10457 0 9 0.89543 9 2V7C9 8.10457 8.10457 9 7 9H2C0.89543 9 0 8.10457 0 7V2ZM7 2H2V7H7V2ZM11 4.5C11 2.01472 13.0147 0 15.5 0C17.9853 0 20 2.01472 20 4.5C20 6.98528 17.9853 9 15.5 9C13.0147 9 11 6.98528 11 4.5ZM15.5 2C14.1193 2 13 3.11929 13 4.5C13 5.88072 14.1193 7 15.5 7C16.8807 7 18 5.88072 18 4.5C18 3.11929 16.8807 2 15.5 2ZM0 13C0 11.8954 0.89543 11 2 11H7C8.10457 11 9 11.8954 9 13V18C9 19.1046 8.10457 20 7 20H2C0.89543 20 0 19.1046 0 18V13ZM7 13H2V18H7V13ZM11 13C11 11.8954 11.8954 11 13 11H18C19.1046 11 20 11.8954 20 13V18C20 19.1046 19.1046 20 18 20H13C11.8954 20 11 19.1046 11 18V13ZM13 13V18H18V13H13Z" fill="#CD2853"/>
</svg>
