<svg width="22" height="21" viewBox="0 0 22 21" fill="none" xmlns="http://www.w3.org/2000/svg">
<path fill-rule="evenodd" clip-rule="evenodd" d="M7 0C7.55228 0 8 0.447715 8 1V1.5H14V1C14 0.447715 14.4477 0 15 0C15.5523 0 16 0.447715 16 1V1.5H19.5C20.6046 1.5 21.5 2.39544 21.5 3.5V19C21.5 20.1046 20.6046 21 19.5 21H2.5C1.39544 21 0.5 20.1046 0.5 19V3.5C0.5 2.39543 1.39543 1.5 2.5 1.5H6V1C6 0.447715 6.44772 0 7 0ZM6 3.5H2.5V7.5H19.5V3.5H16V5C16 5.55228 15.5523 6 15 6C14.4477 6 14 5.55228 14 5V3.5H8V5C8 5.55228 7.55228 6 7 6C6.44772 6 6 5.55228 6 5V3.5ZM19.5 9.5H2.5V19H19.5V9.5ZM5 12C5 11.4477 5.44772 11 6 11H9C9.55229 11 10 11.4477 10 12C10 12.5523 9.55229 13 9 13H6C5.44772 13 5 12.5523 5 12ZM12 12C12 11.4477 12.4477 11 13 11H16C16.5523 11 17 11.4477 17 12C17 12.5523 16.5523 13 16 13H13C12.4477 13 12 12.5523 12 12ZM5 16C5 15.4477 5.44772 15 6 15H9C9.55229 15 10 15.4477 10 16C10 16.5523 9.55229 17 9 17H6C5.44772 17 5 16.5523 5 16ZM12 16C12 15.4477 12.4477 15 13 15H16C16.5523 15 17 15.4477 17 16C17 16.5523 16.5523 17 16 17H13C12.4477 17 12 16.5523 12 16Z" fill="black" fill-opacity="0.5"/>
</svg>
