<svg width="20" height="20" viewBox="0 0 20 20" fill="none" xmlns="http://www.w3.org/2000/svg">
<path d="M0 1C0 0.447715 0.447715 0 1 0H9.99585C10.5481 0 10.9958 0.447715 10.9958 1C10.9958 1.55228 10.5481 2 9.99585 2H2V18H10C10.5523 18 11 18.4477 11 19C11 19.5523 10.5523 20 10 20H1C0.447715 20 0 19.5523 0 19V1Z" fill="black" fill-opacity="0.5"/>
<path d="M13.7929 4.79289C14.1834 4.40237 14.8166 4.40237 15.2071 4.79289L19.6525 9.23826C19.8653 9.42165 20 9.69314 20 9.99609L20 9.99793C20.0005 10.2545 19.9029 10.5113 19.7071 10.7071L15.2071 15.2071C14.8166 15.5976 14.1834 15.5976 13.7929 15.2071C13.4024 14.8166 13.4024 14.1834 13.7929 13.7929L16.5897 10.9961H6C5.44772 10.9961 5 10.5484 5 9.99609C5 9.44381 5.44772 8.99609 6 8.99609H16.5819L13.7929 6.20711C13.4024 5.81658 13.4024 5.18342 13.7929 4.79289Z" fill="black" fill-opacity="0.5"/>
</svg>
